<?xml version="1.0" encoding="UTF-8" standalone="no"?>
<svg
   width="870.99255"
   height="156.89612"
   viewBox="0 0 870.99255 156.89612"
   version="1.1"
   id="svg1"
   sodipodi:docname="Gemini_Generated_Image_v3kx8sv3kx8sv3kx.svg"
   xmlns:inkscape="http://www.inkscape.org/namespaces/inkscape"
   xmlns:sodipodi="http://sodipodi.sourceforge.net/DTD/sodipodi-0.dtd"
   xmlns="http://www.w3.org/2000/svg"
   xmlns:svg="http://www.w3.org/2000/svg">
  <defs
     id="defs1" />
  <sodipodi:namedview
     id="namedview1"
     pagecolor="#ffffff"
     bordercolor="#000000"
     borderopacity="0.25"
     inkscape:showpageshadow="2"
     inkscape:pageopacity="0.0"
     inkscape:pagecheckerboard="0"
     inkscape:deskcolor="#d1d1d1"
     showgrid="false" />
  <g
     id="g1"
     transform="translate(-90.007446,-422.76001)">
    <path
       d="m 173.5,579.37 c -19.31,-2.95 -35.39,-11.3 -49.11,-25.51 -10.73,-11.11 -19.58,-25.97 -21.88,-36.74 -0.5,-2.33 -0.98,-2.97 -1.54,-2.07 -1.04,1.68 -2.97,15.6 -3.25,23.45 l -0.22,6 -2.64,-7 c -6.11,-16.24 -6.48,-36.92 -0.94,-53.5 4.54,-13.58 10.21,-23.01 19.79,-32.93 4.51,-4.67 8.44,-8.25 8.74,-7.95 0.3,0.29 -0.54,3.28 -1.86,6.64 -6.02,15.38 -7.67,34.8 -4.2,49.54 5.93,25.16 23.94,47.44 46.37,57.36 6.98,3.08 20.38,6.32 26.21,6.33 l 4.47,0.01 -7.08,-3.4 c -6.91,-3.31 -11.01,-5.97 -18.63,-12.1 -5.02,-4.04 -4.69,-4.67 1.02,-1.94 12.64,6.03 16.74,6.87 33.75,6.9 13.95,0.02 16.77,-0.25 22,-2.15 8.4,-3.03 14.26,-5.72 19.5,-8.95 l 4.5,-2.77 -1.88,2.95 c -11.02,17.31 -27.18,29.95 -44.83,35.08 -7.79,2.27 -22.25,3.67 -28.29,2.75 z m 125.67,-49.28 c -6.36,-2.19 -12.32,-7.64 -15.96,-14.59 -2.25,-4.29 -2.63,-6.28 -2.67,-14 -0.03,-7.89 0.31,-9.71 2.77,-14.71 6.4,-13.04 20.35,-19.51 33.91,-15.74 3.83,1.06 11.83,6.56 12.5,8.58 0.2,0.62 -1.48,2.59 -3.73,4.38 l -4.09,3.24 -2.2,-2 c -7.98,-7.26 -20.08,-4.95 -25.7,4.9 -1.94,3.4 -2.48,5.77 -2.48,10.85 0,16.84 15.04,25.4 28.12,16.01 l 4.56,-3.28 3.65,3.68 3.65,3.68 -4.13,3.88 c -7.12,6.68 -17.97,8.66 -28.2,5.12 z m 142.33,0.01 c -4.66,-2.15 -8.92,-6.41 -10.44,-10.42 -1.61,-4.25 -1.42,-4.6 3.61,-6.75 4.71,-2.02 6.27,-1.59 6.31,1.73 0.04,2.35 6.1,6.34 9.64,6.34 4.78,0 8.84,-4 7.92,-7.8 -0.86,-3.53 -3.52,-5.48 -11.93,-8.78 -12.69,-4.98 -18.03,-13.69 -14.12,-23.05 2.12,-5.08 4.23,-7.29 9.01,-9.49 8.35,-3.84 18.6,-1.48 23.6,5.42 1.6,2.2 2.9,4.41 2.9,4.91 0,0.49 -2.12,1.84 -4.7,2.98 -3.54,1.57 -4.81,1.77 -5.13,0.82 -0.73,-2.18 -4.02,-4.93 -6.72,-5.61 -3.39,-0.85 -7.19,0.94 -8.61,4.04 -1.79,3.93 0.9,6.9 9.07,10.03 3.85,1.47 8.49,3.66 10.3,4.86 3.99,2.65 7.8,9.82 7.77,14.63 -0.03,4.21 -2.87,10.81 -5.77,13.39 -5.19,4.61 -15.9,5.91 -22.71,2.75 z m 52.07,-0.06 c -6.32,-2.54 -11.96,-8.08 -15.31,-15.04 -2.17,-4.5 -2.66,-6.96 -2.7,-13.5 -0.05,-6.79 0.39,-8.96 2.86,-14.31 6.38,-13.83 20.87,-20.38 34.71,-15.66 4.22,1.44 11.89,6.81 11.85,8.29 -0.01,0.38 -1.84,2.19 -4.06,4.04 l -4.05,3.36 -2.19,-1.98 c -7.02,-6.4 -17.41,-5.48 -23.83,2.09 -1.01,1.19 -2.57,4.61 -3.46,7.59 -1.38,4.58 -1.44,6.26 -0.42,10.81 3.29,14.73 18.33,20.09 28.58,10.21 l 3.04,-2.94 3.9,3.99 3.9,3.99 -2.95,3.1 c -6.98,7.35 -19.98,9.95 -29.87,5.96 z m 383.31,0.64 c -16.51,-6.18 -24.16,-24.03 -17.74,-41.39 6.85,-18.53 28.93,-25.12 44.03,-13.15 l 4,3.16 -4.05,4.05 -4.06,4.06 -2.28,-2.14 c -7.41,-6.94 -19.58,-5.07 -25.53,3.93 -2.39,3.61 -2.75,5.14 -2.75,11.73 0,6.18 0.43,8.26 2.32,11.3 5.9,9.49 17.68,11.66 25.58,4.72 1.85,-1.62 3.78,-2.95 4.29,-2.95 0.5,0 2.44,1.57 4.3,3.49 l 3.38,3.49 -2.43,2.6 c -4.8,5.14 -10.61,7.71 -18.3,8.09 -4.42,0.23 -8.52,-0.15 -10.76,-0.99 z M 339,500.9 v -30.09 l 13.75,0.37 c 15.46,0.41 18.23,1.31 22.91,7.44 2.18,2.86 2.83,4.91 3.09,9.75 0.4,7.36 -2.2,12.77 -7.93,16.49 l -3.63,2.35 7.41,11.41 c 4.07,6.27 7.4,11.62 7.4,11.89 0,0.27 -2.88,0.49 -6.4,0.49 h -6.4 l -6.84,-11 c -6.02,-9.7 -7.16,-11 -9.6,-11 H 350 v 11 11 h -5.5 -5.5 z m 24.34,-4.01 c 4.78,-2.18 5.96,-8.27 2.41,-12.39 -1.95,-2.27 -3.11,-2.64 -8.75,-2.81 l -6.5,-0.19 -0.29,8.25 -0.29,8.25 h 5.49 c 3.02,0 6.59,-0.5 7.93,-1.11 z M 388,501 v -30 h 18 18 v 5.5 5.5 H 411.5 399 v 6.47 6.46 l 11.25,0.29 11.25,0.28 0.3,5.25 0.3,5.25 H 410.55 399 v 7 7 h 12.5 12.5 v 5.5 5.5 h -18 -18 z m 146,0.02 V 471 h 18 18 v 5.5 5.5 H 557.5 545 v 6.5 6.5 h 10.83 c 5.96,0 11.02,0.19 11.25,0.42 0.23,0.23 0.26,2.7 0.07,5.5 L 566.81,506 H 555.9 545 v 7 7 h 12.55 12.55 l -0.3,5.25 -0.3,5.25 -17.75,0.27 -17.75,0.28 z m 44.69,29.28 c -0.27,-0.44 -0.42,-13.85 -0.34,-29.8 l 0.15,-29 6.16,-0.3 6.15,-0.29 5,8.29 c 2.75,4.57 7.74,13.24 11.1,19.28 L 613,509.45 V 490.23 471 h 5.5 5.5 v 30.05 30.05 l -5.6,-0.3 -5.59,-0.3 -9.99,-17 c -5.49,-9.35 -10.63,-18.46 -11.42,-20.25 -0.78,-1.79 -1.66,-3.25 -1.95,-3.25 -0.29,0 -0.47,9.11 -0.4,20.25 l 0.12,20.25 -5,0.3 c -2.74,0.16 -5.21,-0.06 -5.48,-0.5 z M 646,506.5 V 482 h -7.5 -7.5 v -5.5 -5.5 h 20.5 20.5 v 5.5 5.5 h -7.5 -7.5 v 24.5 24.5 h -5.5 -5.5 z m 58.56,23.3 C 703.85,527.61 690,472.24 690,471.6 c 0,-0.33 2.61,-0.6 5.79,-0.6 h 5.8 l 4.27,18.25 c 2.36,10.04 4.54,19.14 4.85,20.23 0.35,1.23 2.31,-4.22 5.2,-14.5 l 4.64,-16.48 5.58,-0.3 5.59,-0.29 4.83,16.52 c 2.66,9.08 4.95,16.4 5.08,16.27 0.14,-0.13 2.1,-8.33 4.36,-18.22 2.27,-9.89 4.35,-18.77 4.63,-19.73 0.42,-1.42 1.66,-1.75 6.51,-1.75 5.25,0 5.94,0.22 5.48,1.75 -0.29,0.96 -3.27,12.77 -6.62,26.25 -3.35,13.47 -6.54,26.21 -7.09,28.3 l -1,3.8 -5.69,-0.3 -5.69,-0.3 -4.97,-16.71 c -2.73,-9.19 -5.21,-16.46 -5.51,-16.17 -0.3,0.29 -2.59,7.81 -5.09,16.71 l -4.54,16.17 -5.72,0.3 c -4.02,0.21 -5.84,-0.08 -6.13,-1 z m 55.92,-0.5 c 1.2,-2.98 3.95,-10.71 11.83,-33.3 4.12,-11.83 7.81,-22.29 8.2,-23.25 0.57,-1.41 1.94,-1.75 7.1,-1.75 3.51,0 6.39,0.18 6.39,0.41 0,0.22 4.72,13.33 10.5,29.11 5.78,15.79 10.5,29.13 10.5,29.64 0,0.52 -2.78,0.8 -6.17,0.64 l -6.17,-0.3 -2.16,-6.5 -2.17,-6.5 H 787.5 776.67 l -2.17,6.5 -2.16,6.5 -6.3,0.3 c -5.72,0.27 -6.23,0.14 -5.56,-1.5 z m 34.06,-24.05 c -0.37,-0.96 -2.06,-5.7 -3.74,-10.53 -1.69,-4.83 -3.24,-8.61 -3.45,-8.4 -0.21,0.21 -1.92,4.95 -3.8,10.53 L 780.13,507 h 7.54 c 6.78,0 7.48,-0.18 6.87,-1.75 z m 33.46,1.3 V 482 h -8.05 -8.05 l 0.3,-5.25 0.3,-5.25 20.75,-0.27 20.75,-0.27 v 5.52 5.52 h -7.48 -7.48 l -0.27,24.25 -0.27,24.25 -5.25,0.3 -5.25,0.3 z M 916,501 v -30 h 5.5 5.5 v 12 12 h 11.5 11.5 v -12 -12 h 5.5 5.5 v 30 30 h -5.47 -5.47 L 949.78,518.25 949.5,505.5 938.25,505.22 927,504.93 V 517.97 531 h -5.5 -5.5 z m -747.32,-7.53 c -0.93,-3.76 -2.39,-7.9 -3.24,-9.2 -2.21,-3.38 -7.04,-6.04 -13.41,-7.39 l -5.53,-1.17 7.66,-2.36 c 9.26,-2.85 12.14,-5.77 13.93,-14.09 1.51,-7.06 2.84,-9.91 2.88,-6.19 0.05,4.28 2.96,12.74 5.34,15.5 1.53,1.79 4.72,3.32 10.12,4.88 l 7.87,2.27 -3.9,0.69 c -6.24,1.11 -13.73,5.19 -15.72,8.56 -1,1.68 -2.38,5.82 -3.06,9.2 l -1.26,6.14 z m 43.59,-24.52 c -1.54,-6.51 -2.5,-7.65 -7.64,-9.11 -5.87,-1.67 -6.33,-2.47 -1.81,-3.19 5.48,-0.88 8.06,-3.34 9.52,-9.06 l 1.25,-4.92 1.3,4.42 c 1.79,6.08 4.5,8.7 9.85,9.5 4.52,0.68 4.22,2.36 -0.43,2.39 -3.63,0.03 -7.68,4.38 -9.31,10.01 l -1.5,5.16 z m -19.72,-30.77 c -0.47,-2.12 -1.8,-3.97 -3.65,-5.09 l -2.9,-1.77 2.55,-1.16 c 1.4,-0.64 3.14,-2.57 3.86,-4.28 l 1.31,-3.12 1.1,3.15 c 0.71,2.04 2.21,3.62 4.26,4.48 l 3.16,1.33 -3.13,1.09 c -1.73,0.6 -3.39,1.9 -3.71,2.89 -1.8,5.69 -2.09,5.94 -2.85,2.48 z"
       fill="rgba(0,0,0,1)"
       id="path1" />
  </g>
</svg>
